<?xml version="1.0" standalone="no"?>
<!DOCTYPE svg PUBLIC "-//W3C//DTD SVG 20010904//EN"
 "http://www.w3.org/TR/2001/REC-SVG-20010904/DTD/svg10.dtd">
<svg version="1.0" xmlns="http://www.w3.org/2000/svg"
 width="83.000000pt" height="300.000000pt" viewBox="0 0 83.000000 300.000000"
 preserveAspectRatio="xMidYMid meet">

<g transform="translate(0.000000,300.000000) scale(0.100000,-0.100000)"
fill="#000000" stroke="none">
<path d="M361 2940 c-52 -12 -112 -60 -138 -109 -46 -87 -24 -191 56 -264 52
-48 53 -74 5 -119 -67 -61 -74 -68 -74 -77 0 -6 19 -12 43 -14 23 -2 -8 -4
-69 -5 -96 -2 -115 -5 -138 -23 -32 -25 -35 -70 -6 -99 19 -19 33 -20 373 -20
330 0 355 1 370 18 23 25 21 78 -3 102 -16 16 -33 20 -79 20 l-60 0 -65 65
c-80 78 -86 107 -32 149 97 74 105 241 14 322 -52 48 -133 70 -197 54z m14
-37 c-97 -51 -131 -153 -84 -250 16 -32 35 -52 73 -73 56 -33 44 -40 -19 -11
-143 64 -149 262 -11 331 48 23 85 27 41 3z"/>
<path d="M106 2144 c-14 -14 -16 -101 -16 -808 0 -603 3 -795 12 -804 17 -17
599 -17 616 0 17 17 17 1599 0 1616 -9 9 -90 12 -304 12 -253 0 -295 -2 -308
-16z m584 -122 c11 -13 20 -39 20 -56 l0 -32 -235 -74 -235 -75 0 -107 0 -107
42 14 c38 13 344 110 406 129 22 7 22 6 22 -78 l0 -85 -235 -76 -235 -76 0
-104 c0 -58 3 -105 6 -105 4 0 104 32 224 70 120 39 222 70 229 70 7 0 11 -28
11 -83 l0 -83 -235 -74 -235 -74 0 -118 c0 -65 3 -118 8 -117 4 0 108 33 232
73 l225 72 3 -80 c2 -43 -1 -83 -5 -87 -4 -4 -100 -37 -213 -73 -231 -74 -296
-83 -344 -45 -20 16 -26 29 -26 59 0 35 3 39 35 50 l35 12 0 119 0 119 -26
-10 c-48 -18 -49 -16 -46 74 l3 85 35 11 34 12 0 104 c0 58 -4 104 -9 104 -5
0 -21 -4 -36 -10 l-26 -10 3 87 3 87 33 10 32 9 0 108 0 109 -26 -10 c-48 -18
-49 -16 -46 74 l3 85 35 11 c33 11 34 13 34 66 0 51 1 54 25 54 23 0 25 -4 25
-45 0 -25 3 -45 6 -45 4 0 63 18 133 41 122 40 222 59 269 50 12 -2 31 -15 42
-29z"/>
<path d="M42 437 c-27 -29 -28 -71 -2 -97 18 -18 34 -20 143 -21 l122 -1 -83
-13 c-46 -7 -86 -16 -90 -19 -13 -14 106 -114 159 -134 47 -17 55 -24 61 -53
15 -78 112 -76 120 2 3 27 9 33 48 46 62 21 129 73 165 127 23 34 36 46 56 46
55 0 80 79 39 120 -19 19 -33 20 -368 20 l-349 0 -21 -23z"/>
</g>
</svg>
